<?xml version="1.0" encoding="utf-8"?>
<!-- Generator: Adobe Illustrator 16.0.0, SVG Export Plug-In . SVG Version: 6.00 Build 0)  -->
<!DOCTYPE svg PUBLIC "-//W3C//DTD SVG 1.1//EN" "http://www.w3.org/Graphics/SVG/1.1/DTD/svg11.dtd">
<svg version="1.1" id="Слой_1" xmlns="http://www.w3.org/2000/svg" xmlns:xlink="http://www.w3.org/1999/xlink" x="0px" y="0px"
	 width="841.889px" height="1190.551px" viewBox="0 0 841.889 1190.551" enable-background="new 0 0 841.889 1190.551"
	 xml:space="preserve">
<path d="M461.259,1002.235H330.292c-4.142,0-7.5-3.357-7.5-7.5V622.411H222.251c-4.142,0-7.5-3.357-7.5-7.5V493.775
	c0-4.142,3.358-7.5,7.5-7.5h100.541V362.808c0-0.053,0-0.107,0.001-0.16c1.004-46.997,12.904-83.091,35.371-107.28
	c22.629-24.363,56.187-36.997,99.739-37.549l139.247,0c4.143,0,7.5,3.358,7.5,7.5v121.119c0,4.142-3.357,7.5-7.5,7.5h-89.843
	c-16.42,0.875-27.72,4.747-33.587,11.51c-4.12,4.749-5.753,11.159-4.992,19.598c0.021,0.224,0.03,0.449,0.03,0.673v100.557h123.468
	c4.143,0,7.5,3.358,7.5,7.5v121.136c0,4.143-3.357,7.5-7.5,7.5H468.759v372.324C468.759,998.878,465.402,1002.235,461.259,1002.235z
	 M337.792,987.235h115.967V614.911c0-4.142,3.357-7.5,7.5-7.5h123.468V501.275H461.259c-4.143,0-7.5-3.358-7.5-7.5v-107.73
	c-1.046-12.384,1.857-22.619,8.632-30.427c8.664-9.987,23.58-15.596,44.332-16.67c0.129-0.007,0.259-0.01,0.388-0.01h82.54V232.819
	H457.998c-78.983,1.001-118.335,43.549-120.206,130.071v130.886c0,4.142-3.358,7.5-7.5,7.5H229.751v106.136h100.541
	c4.142,0,7.5,3.358,7.5,7.5V987.235z"/>
</svg>
