<?xml version="1.0" encoding="utf-8"?>
<!-- Generator: Adobe Illustrator 16.0.0, SVG Export Plug-In . SVG Version: 6.00 Build 0)  -->
<!DOCTYPE svg PUBLIC "-//W3C//DTD SVG 1.1//EN" "http://www.w3.org/Graphics/SVG/1.1/DTD/svg11.dtd">
<svg version="1.1" id="Слой_1" xmlns="http://www.w3.org/2000/svg" xmlns:xlink="http://www.w3.org/1999/xlink" x="0px" y="0px"
	 width="841.889px" height="1190.551px" viewBox="0 0 841.889 1190.551" enable-background="new 0 0 841.889 1190.551"
	 xml:space="preserve">
<path d="M244.603,414.469c-19.452,0-36.353-7.039-50.235-20.92c-13.882-13.882-20.92-30.784-20.92-50.235
	c0-19.452,7.039-36.354,20.92-50.235c13.881-13.882,30.783-20.921,50.235-20.921c19.46,0,36.367,7.039,50.25,20.921
	c13.882,13.882,20.92,30.783,20.92,50.235c0,19.452-7.039,36.353-20.92,50.235C280.969,407.43,264.063,414.469,244.603,414.469z
	 M244.603,287.157c-15.545,0-28.507,5.406-39.628,16.527s-16.527,24.083-16.527,39.629c0,15.545,5.406,28.507,16.527,39.629
	c11.121,11.121,24.083,16.527,39.628,16.527c15.554,0,28.521-5.406,39.643-16.527c11.121-11.121,16.527-24.083,16.527-39.628
	c0-15.545-5.406-28.508-16.527-39.629C273.124,292.563,260.157,287.157,244.603,287.157z"/>
<path d="M476.776,817.693H364.445c-4.142,0-7.5-3.357-7.5-7.5V458.18c0-4.142,3.358-7.5,7.5-7.5h112.331c4.143,0,7.5,3.358,7.5,7.5
	v22.115c34.386-18.233,71.158-28.173,104.778-28.173c35.757,0,66.319,10.815,88.382,31.275
	c23.896,22.159,36.525,54.867,36.525,94.587V810.17c0,4.143-3.357,7.5-7.5,7.5H589.169c-4.143,0-7.5-3.357-7.5-7.5V581.914
	c-7.741-19.07-20.108-28.347-37.771-28.347c-15.694,0-35.74,7.125-59.623,21.185v235.441
	C484.276,814.336,480.918,817.693,476.776,817.693z M371.945,802.693h97.331V570.5c0-2.619,1.366-5.048,3.604-6.409
	c28.251-17.175,51.481-25.524,71.02-25.524c24.277,0,42.351,13.559,52.266,39.212c0.334,0.863,0.505,1.779,0.505,2.704V802.67
	h102.292V577.984c0-35.438-10.97-64.342-31.725-83.589c-19.24-17.842-46.275-27.273-78.183-27.273
	c-34.688,0-73.204,11.519-108.451,32.433c-2.318,1.375-5.196,1.4-7.538,0.067c-2.343-1.334-3.789-3.822-3.789-6.518V465.68h-97.331
	V802.693z"/>
<path d="M314.515,817.67H179.702c-4.142,0-7.5-3.357-7.5-7.5V458.156c0-4.142,3.358-7.5,7.5-7.5h134.812c4.142,0,7.5,3.358,7.5,7.5
	V810.17C322.015,814.312,318.657,817.67,314.515,817.67z M187.202,802.67h119.812V465.656H187.202V802.67z"/>
</svg>
