<?xml version="1.0" encoding="utf-8"?>
<!-- Generator: Adobe Illustrator 16.0.0, SVG Export Plug-In . SVG Version: 6.00 Build 0)  -->
<!DOCTYPE svg PUBLIC "-//W3C//DTD SVG 1.1//EN" "http://www.w3.org/Graphics/SVG/1.1/DTD/svg11.dtd">
<svg version="1.1" id="Слой_1" xmlns="http://www.w3.org/2000/svg" xmlns:xlink="http://www.w3.org/1999/xlink" x="0px" y="0px"
	 width="841.889px" height="1190.551px" viewBox="0 0 841.889 1190.551" enable-background="new 0 0 841.889 1190.551"
	 xml:space="preserve">
<g>
	<path d="M428.773,687.199c-2.582,0-5.179-0.028-7.717-0.083c-74.714-1.606-147.815-26.827-200.559-69.192
		c-10.429-8.377-16.972-20.313-18.423-33.612c-1.451-13.298,2.363-26.365,10.74-36.795c9.556-11.896,23.796-18.72,39.07-18.72
		c11.346,0,22.475,3.92,31.336,11.038c35.353,28.396,87.685,46.019,139.988,47.143c1.899,0.042,3.791,0.062,5.67,0.062
		c51.696,0,96.635-15.751,126.536-44.352c9.365-8.957,21.657-13.89,34.612-13.89c13.804,0,26.658,5.492,36.195,15.465
		c19.087,19.956,18.381,51.72-1.575,70.806C576.021,661.583,506.457,687.199,428.773,687.199z M251.885,543.797
		c-10.704,0-20.682,4.779-27.375,13.113c-5.868,7.306-8.54,16.459-7.523,25.775c1.017,9.315,5.6,17.676,12.905,23.543
		c50.218,40.338,120.013,64.354,191.489,65.892c2.433,0.053,4.919,0.079,7.394,0.079c73.803,0,139.685-24.139,185.507-67.97
		c13.979-13.37,14.474-35.619,1.104-49.598c-6.681-6.985-15.686-10.833-25.355-10.833c-9.074,0-17.684,3.456-24.244,9.729
		c-32.706,31.284-81.326,48.512-136.904,48.512c-1.987,0-3.988-0.021-5.995-0.065c-55.492-1.192-111.215-20.05-149.057-50.445
		C267.53,546.471,259.942,543.797,251.885,543.797z"/>
	<path d="M281.488,905.423c-13.906,0-26.828-5.562-36.383-15.659c-9.194-9.717-14.054-22.432-13.685-35.804
		c0.369-13.371,5.923-25.799,15.639-34.992c4.991-4.725,16.522-17.856,27.673-30.557c18.288-20.826,41.033-46.727,62.58-67.818
		c35.281-34.538,59.878-48.626,84.901-48.626l0.582,0.003c38.944,0.332,74.71,34.676,145.224,116.705
		c10.927,12.712,22.227,25.857,27.179,30.639c19.866,19.179,20.426,50.945,1.245,70.813c-9.522,9.863-22.319,15.295-36.034,15.296
		c-13.042,0.001-25.395-4.99-34.781-14.053c-8.305-8.019-19.451-20.985-33.562-37.403c-15.344-17.85-32.734-38.081-49.348-55.327
		c-9.079-9.425-15.869-15.781-20.688-19.981c-4.962,4.232-11.985,10.669-21.417,20.266c-17.042,17.341-34.88,37.654-50.617,55.576
		c-14.376,16.373-25.732,29.305-34.093,37.217C306.564,900.554,294.342,905.423,281.488,905.423z M422.212,686.967
		c-20.676,0-42.233,12.848-74.408,44.345c-21.143,20.696-43.68,46.361-61.79,66.983c-11.911,13.565-23.151,26.366-28.646,31.567
		c-6.806,6.44-10.696,15.146-10.955,24.512c-0.259,9.367,3.146,18.273,9.586,25.079c6.693,7.074,15.745,10.97,25.488,10.97
		c9.002,0,17.562-3.41,24.104-9.602c7.858-7.435,19.012-20.137,33.132-36.218c15.868-18.071,33.853-38.553,51.19-56.193
		c10.824-11.015,20.09-19.56,27.541-25.397l4.676-3.664l4.638,3.713c7.261,5.813,16.261,14.282,26.751,25.172
		c16.908,17.552,34.446,37.954,49.92,55.955c13.858,16.123,24.804,28.856,32.606,36.391c6.575,6.349,15.228,9.844,24.361,9.844
		c9.608-0.001,18.574-3.806,25.244-10.715c6.508-6.741,10.001-15.613,9.836-24.982c-0.164-9.369-3.968-18.113-10.709-24.621
		c-5.454-5.266-16.471-18.083-28.135-31.652c-67.383-78.387-100.895-111.201-134.001-111.483L422.212,686.967z"/>
	<path d="M422.18,543.3c-45.602,0-88.537-15.322-120.896-43.145c-37.107-31.905-57.542-78.461-57.542-131.092
		s20.436-99.187,57.542-131.092c32.359-27.823,75.294-43.146,120.896-43.146c45.601,0,88.536,15.323,120.896,43.146
		c37.105,31.904,57.541,78.46,57.541,131.092s-20.436,99.188-57.541,131.092C510.716,527.977,467.781,543.3,422.18,543.3z
		 M422.18,209.826c-42.015,0-81.477,14.035-111.116,39.52c-33.74,29.01-52.322,71.527-52.322,119.718s18.582,90.708,52.322,119.718
		c29.639,25.484,69.101,39.519,111.116,39.519c42.015,0,81.477-14.035,111.117-39.519c33.739-29.009,52.32-71.526,52.32-119.718
		s-18.581-90.708-52.32-119.718C503.656,223.861,464.194,209.826,422.18,209.826z M422.18,458.139
		c-24.874,0-48.702-8.222-65.375-22.559c-18.514-15.918-27.902-38.298-27.902-66.518s9.388-50.599,27.902-66.518
		c16.674-14.336,40.502-22.559,65.375-22.559c24.872,0,48.701,8.223,65.376,22.559c18.515,15.919,27.902,38.298,27.902,66.518
		s-9.388,50.599-27.902,66.518C470.881,449.917,447.053,458.139,422.18,458.139z M422.18,294.987
		c-21.338,0-41.603,6.901-55.596,18.933c-15.05,12.94-22.681,31.493-22.681,55.144s7.631,42.204,22.681,55.144
		c13.994,12.032,34.257,18.933,55.596,18.933c21.338,0,41.603-6.901,55.597-18.933c15.051-12.94,22.682-31.493,22.682-55.144
		s-7.631-42.204-22.682-55.144C463.782,301.887,443.518,294.987,422.18,294.987z"/>
</g>
</svg>
