<?xml version="1.0" encoding="utf-8"?>
<!-- Generated by IcoMoon.io -->
<!DOCTYPE svg PUBLIC "-//W3C//DTD SVG 1.1//EN" "http://www.w3.org/Graphics/SVG/1.1/DTD/svg11.dtd">
<svg version="1.1" xmlns="http://www.w3.org/2000/svg" xmlns:xlink="http://www.w3.org/1999/xlink" width="64" height="64" viewBox="0 0 64 64">
<path fill="#444444" d="M18.816 24.192c0.128 0 0.128 0 0.256 0 0.512 2.688 1.664 5.12 3.328 7.168 2.688 3.456 5.888 5.12 9.728 5.12 3.712 0 7.040-1.792 9.728-5.12 1.664-2.048 2.816-4.48 3.456-7.168 0.128 0 0.128 0 0.256 0 0.384 0 1.152-0.128 1.536-1.408 0.128-0.64 0.256-1.536 0.256-2.56s-0.128-1.92-0.256-2.688c-0.256-1.152-0.896-1.536-1.408-1.664-0.128-0.768-0.256-1.408-0.384-2.176 0 0 0 0 0-0.128-0.64-2.56-1.792-4.864-3.328-6.912 0 0 0 0 0 0-2.688-3.456-5.888-5.12-9.728-5.12s-7.040 1.792-9.728 5.12c-1.792 2.304-3.072 4.992-3.456 7.936 0 0 0 0 0 0-0.128 0.384-0.128 0.768-0.256 1.152-0.384 0-1.152 0.256-1.28 1.536-0.128 0.64-0.256 1.536-0.256 2.56s0.128 1.792 0.256 2.56c0 1.664 0.896 1.792 1.28 1.792zM23.424 7.68c2.432-3.2 5.248-4.736 8.704-4.736s6.272 1.536 8.704 4.736c1.28 1.664 2.176 3.456 2.816 5.504-2.816-0.768-5.248-2.56-7.040-5.12-0.128-0.256-0.256-0.384-0.512-0.384 0 0 0 0 0 0-0.256 0-0.384 0.128-0.512 0.256-4.352 6.144-9.344 8.32-15.36 6.528 0.512-2.432 1.536-4.864 3.2-6.784zM18.56 17.792c0-0.384 0.128-0.512 0.256-0.512 0.128 0.128 0.384 0.128 0.64 0s0.384-0.256 0.384-0.512c0-0.384 0.128-0.64 0.128-1.024 6.144 1.792 11.52-0.384 16.128-6.4 2.048 2.688 4.736 4.352 7.936 5.12 0.128 0.768 0.256 1.408 0.384 2.176v0.128c0 0.256 0.128 0.512 0.384 0.64s0.512 0 0.64-0.128c0 0 0 0 0 0s0.128 0.128 0.256 0.64c0.128 0.64 0.256 1.408 0.256 2.304s-0.128 1.664-0.256 2.176c0 0.256-0.128 0.512-0.384 0.512 0 0-0.128 0-0.128 0-0.128-0.256-0.384-0.256-0.64-0.256-0.256 0.128-0.512 0.384-0.512 0.64v0.128c-0.64 2.688-1.664 5.12-3.328 7.168-2.432 3.2-5.248 4.736-8.704 4.736s-6.272-1.536-8.704-4.736c-1.664-2.176-2.816-4.608-3.2-7.424 0-0.256-0.128-0.384-0.384-0.512-0.128 0-0.128 0-0.256 0s-0.256 0-0.384 0.128-0.256 0.128-0.384 0.128c0 0-0.128 0-0.256-0.384-0.128-0.64-0.128-1.536-0.128-2.432 0.128-0.896 0.128-1.664 0.256-2.304z"></path>
<path fill="#444444" d="M4.992 59.904c8.96 1.28 18.048 1.792 27.264 1.792s18.432-0.64 27.648-1.792c0.384 0 0.64-0.384 0.512-0.64-0.896-11.392-7.168-18.688-18.56-21.76-0.256-0.128-0.64 0-0.768 0.384l-6.016 11.392-1.792-6.528c0.384-0.128 0.768-0.256 1.152-0.384 0.768-0.384 1.152-0.896 1.152-1.536s-0.384-1.152-1.152-1.536c0 0 0 0 0 0-1.28-0.64-3.2-0.64-4.352 0-0.768 0.384-1.152 0.896-1.152 1.536s0.384 1.152 1.28 1.664c0.256 0.128 0.512 0.256 0.896 0.256l-2.048 6.912-6.144-12.032c-0.128-0.256-0.512-0.384-0.768-0.384-11.008 3.328-16.896 10.752-17.664 22.016-0.128 0.256 0.128 0.64 0.512 0.64zM30.72 41.216c-0.256-0.128-0.512-0.384-0.512-0.512s0.128-0.256 0.512-0.512c0.768-0.384 2.304-0.384 3.328 0 0.384 0.256 0.512 0.384 0.512 0.512s-0.128 0.256-0.512 0.384c-0.384 0.128-0.896 0.256-1.408 0.384h-0.64c-0.64-0.128-1.024-0.128-1.28-0.256zM32.128 43.136l2.176 7.68-2.304 4.48-2.176-4.096 2.304-8.064zM22.016 38.656l6.656 12.928c0 0 0 0 0 0l2.688 5.376c0.128 0.256 0.384 0.384 0.512 0.384 0.256 0 0.512-0.128 0.512-0.384l3.072-5.76c0 0 0 0 0 0l6.528-12.416c10.368 3.072 16 9.6 17.024 19.968-17.92 2.304-35.84 2.304-53.376 0 1.024-10.368 6.4-16.896 16.384-20.096z"></path>
</svg>
