<?xml version="1.0" encoding="utf-8"?>
<!-- Generated by IcoMoon.io -->
<!DOCTYPE svg PUBLIC "-//W3C//DTD SVG 1.1//EN" "http://www.w3.org/Graphics/SVG/1.1/DTD/svg11.dtd">
<svg version="1.1" xmlns="http://www.w3.org/2000/svg" xmlns:xlink="http://www.w3.org/1999/xlink" width="64" height="64" viewBox="0 0 64 64">
<path fill="#444444" d="M21.504 18.688h-11.904c-0.384 0-0.64 0.256-0.64 0.64s0.256 0.64 0.64 0.64h11.776c0.384 0 0.64-0.256 0.64-0.64s-0.256-0.64-0.512-0.64z"></path>
<path fill="#444444" d="M28.544 21.76c0.128 0 0.128 0 0.256 0l25.216-9.984c0.384-0.128 0.512-0.512 0.384-0.768-0.128-0.384-0.512-0.512-0.768-0.384l-25.344 9.856c-0.384 0.128-0.512 0.512-0.384 0.768 0.128 0.384 0.384 0.512 0.64 0.512z"></path>
<path fill="#444444" d="M61.952 3.84c-0.64-0.64-1.408-1.024-2.304-1.024s-1.792 0.384-2.432 1.024c-0.512 0.512-0.768 1.28-0.896 2.048l-31.872 12.672c-0.256-1.28-1.152-1.92-2.688-1.92h-12.544c-1.664 0-2.688 0.896-2.816 2.56h-3.072c-0.384 0-0.64 0.256-0.64 0.64v12.672c0 0.384 0.256 0.64 0.64 0.64h3.072c0.128 1.792 1.024 2.688 2.816 2.688h1.792l3.968 22.4c0.384 1.92 1.536 3.072 3.456 3.072h4.864c0.768 0 1.408-0.384 1.792-0.768 0.384-0.512 0.64-1.408 0.384-2.432l-3.84-22.272h0.384c1.408 0 2.432-0.64 2.688-1.92l31.872 12.288c0.128 0.64 0.384 1.408 0.896 2.048 0.64 0.64 1.408 0.896 2.432 0.896 0.896 0 1.792-0.384 2.304-1.024 0.64-0.768 0.896-1.536 0.896-2.432v-39.424c-0.128-1.024-0.512-1.792-1.152-2.432zM6.4 31.744h-2.432v-11.392h2.432v11.392zM24.192 58.112c0.128 0.64 0 1.152-0.128 1.408s-0.384 0.256-0.768 0.384h-4.864c-1.28 0-1.92-0.64-2.176-1.92l-3.84-22.272h7.936l3.84 22.4zM23.424 19.456v13.44c0 0 0 0 0 0 0 1.152-0.384 1.536-1.408 1.536h-1.024c0 0 0 0 0 0h-9.472c0 0 0 0 0 0h-2.304c-1.152 0-1.536-0.512-1.536-1.536v-13.568c0-1.152 0.512-1.536 1.536-1.536h12.672c1.024 0 1.536 0.512 1.536 1.664 0-0.128 0 0 0 0zM56.448 44.544l-31.744-12.16v-12.544l31.744-12.672v37.376zM61.696 45.44c0 0.512-0.256 1.024-0.64 1.536-0.384 0.384-0.768 0.512-1.408 0.512s-1.024-0.128-1.408-0.512c-0.384-0.512-0.512-1.024-0.512-1.536 0 0 0 0 0 0v-39.168c0 0 0 0 0 0 0-0.64 0.128-1.152 0.512-1.536s0.896-0.64 1.408-0.64c0.64 0 1.024 0.128 1.408 0.512 0.384 0.512 0.64 1.024 0.64 1.664v39.168z"></path>
</svg>
