<?xml version="1.0" encoding="utf-8"?>
<!-- Generated by IcoMoon.io -->
<!DOCTYPE svg PUBLIC "-//W3C//DTD SVG 1.1//EN" "http://www.w3.org/Graphics/SVG/1.1/DTD/svg11.dtd">
<svg version="1.1" xmlns="http://www.w3.org/2000/svg" xmlns:xlink="http://www.w3.org/1999/xlink" width="83" height="64" viewBox="0 0 83 64">
<path fill="#444444" d="M65.408 35.328c-4.352 0.128-7.936 0.896-10.624 2.176-0.128 0-0.256 0.128-0.384 0.128s-0.256-0.128-0.256-0.128c-1.408-0.768-2.944-1.28-4.608-1.792-0.256-0.128-0.64 0-0.768 0.384l-4.608 8.832-1.28-4.736c0.256-0.128 0.512-0.128 0.768-0.256 0.896-0.384 1.024-1.024 1.024-1.408s-0.128-0.896-1.024-1.28c-1.024-0.512-2.56-0.512-3.712 0-0.896 0.384-1.024 0.896-1.024 1.28s0.128 1.024 1.024 1.408c0.256 0.128 0.384 0.128 0.64 0.256l-1.536 5.12-4.736-9.344c-0.128-0.256-0.512-0.384-0.768-0.384-1.92 0.64-3.712 1.28-5.248 2.176-2.816-1.408-6.4-2.176-11.008-2.432-11.648 0.512-17.536 4.992-17.28 13.44 0 0.256 0.256 0.512 0.512 0.64 5.632 0.768 11.264 1.152 16.896 1.152h2.176c-0.128 0.896-0.256 1.792-0.384 2.816 0 0.384 0.256 0.64 0.512 0.64 7.296 1.024 14.592 1.536 22.016 1.536s14.848-0.512 22.272-1.536c0.384 0 0.64-0.384 0.512-0.64-0.128-1.024-0.256-1.92-0.384-2.816h1.28c5.632 0 11.392-0.384 17.152-1.152 0.256 0 0.512-0.256 0.512-0.64 0-8.192-5.888-12.8-17.664-13.44zM40.576 38.784c-0.256-0.128-0.256-0.256-0.256-0.256s0-0.128 0.256-0.256c0.768-0.384 1.92-0.384 2.56 0 0.256 0.128 0.256 0.256 0.256 0.256s-0.128 0.128-0.256 0.256c-0.256 0.128-0.64 0.256-1.024 0.256h-0.512c-0.384 0-0.768-0.128-1.024-0.256zM41.856 40.96l1.536 5.632-1.792 3.328-1.536-3.072 1.792-5.888zM17.408 49.408c-5.376 0-10.752-0.384-16.128-1.152 0-7.424 5.248-11.264 16.128-11.52 3.968 0.256 7.296 0.896 9.728 2.048-3.712 2.56-6.144 6.144-7.296 10.752h-2.432zM20.608 52.992c0.128-1.024 0.256-1.92 0.512-2.816 0 0 0 0 0 0 1.024-4.864 3.712-8.576 7.68-11.008 0 0 0 0 0 0 1.408-0.896 2.944-1.536 4.736-2.176l5.248 10.368 2.176 4.352c0.128 0.256 0.384 0.384 0.512 0.384 0.256 0 0.512-0.128 0.512-0.384l2.432-4.736c0 0 0 0 0 0l5.12-9.856c1.408 0.384 2.688 0.896 3.84 1.536 0.256 0.128 0.384 0.256 0.64 0.384 4.48 2.432 7.424 6.144 8.576 11.136 0 0 0 0 0 0 0.256 0.896 0.384 1.792 0.512 2.816-14.208 1.792-28.544 1.792-42.496 0zM65.536 49.408h-1.536c-1.152-4.736-3.84-8.448-7.936-10.88 2.432-1.024 5.632-1.664 9.472-1.792 10.752 0.64 16.128 4.352 16.384 11.648-5.504 0.64-11.008 1.024-16.384 1.024z"></path>
<path fill="#444444" d="M57.088 27.392c0.384 1.664 1.152 3.072 2.176 4.352 1.664 2.176 3.712 3.2 6.144 3.2s4.48-1.152 6.144-3.2c1.024-1.28 1.664-2.688 2.176-4.352 0.256 0 0.896-0.128 1.152-1.024 0.128-0.384 0.128-1.024 0.128-1.664s0-1.152-0.128-1.664c-0.128-0.768-0.512-1.024-0.896-1.024 0-0.384-0.128-0.768-0.256-1.152 0 0 0 0 0-0.128-0.384-1.664-1.152-3.072-2.176-4.352-1.664-2.176-3.712-3.328-6.144-3.328s-4.48 1.152-6.144 3.328c-1.152 1.408-1.92 3.072-2.304 4.992 0 0 0 0.128 0 0.128 0 0.128 0 0.256 0 0.384-0.384 0.128-0.768 0.384-0.768 1.024-0.128 0.512-0.128 1.024-0.128 1.664s0 1.152 0.128 1.536c0 0.896 0.512 1.28 0.896 1.28zM60.288 17.024c1.408-1.92 3.072-2.816 5.12-2.816s3.712 0.896 5.12 2.816c0 0 0 0 0 0 0.64 0.896 1.28 1.792 1.664 2.816-1.536-0.512-2.816-1.536-3.712-2.944-0.128-0.128-0.256-0.256-0.512-0.256 0 0 0 0 0 0-0.256 0-0.384 0.128-0.512 0.256-2.56 3.584-5.504 4.864-9.088 3.968 0.384-1.28 1.024-2.56 1.92-3.84zM57.344 23.168c0 0 0 0 0 0 0.128 0 0.128 0 0.256 0 0.256-0.128 0.384-0.256 0.384-0.512 0-0.128 0-0.256 0.128-0.384 3.712 0.896 7.040-0.384 9.856-3.84 1.28 1.536 2.816 2.432 4.736 2.944 0.128 0.384 0.128 0.768 0.128 1.152 0 0.256 0.128 0.512 0.384 0.64 0.128 0 0.256 0 0.384 0 0 0 0 0.128 0 0.128 0.128 0.384 0.128 0.896 0.128 1.408s0 1.024-0.128 1.28c0 0 0 0 0 0.128h-0.128c-0.256-0.128-0.384 0-0.64 0.128-0.128 0.128-0.256 0.256-0.256 0.512-0.384 1.664-1.024 3.072-2.048 4.352-1.408 1.92-3.072 2.816-5.12 2.816s-3.712-0.896-5.12-2.816c-1.024-1.28-1.664-2.816-2.048-4.608 0-0.256-0.128-0.384-0.384-0.512-0.128 0-0.128 0-0.128 0-0.128 0-0.256 0-0.256 0.128 0 0 0 0 0 0-0.128-0.384-0.128-0.896-0.128-1.408-0.128-0.64-0.128-1.024 0-1.536z"></path>
<path fill="#444444" d="M30.976 25.344c0 0 0 0 0 0 0.64 2.176 1.536 4.096 2.816 5.76 2.176 2.816 4.864 4.224 7.936 4.224s5.76-1.408 7.936-4.224c1.28-1.664 2.304-3.584 2.816-5.76 0.384 0 1.152 0 1.408-1.28 0.128-0.512 0.256-1.28 0.256-2.048 0-0.896-0.128-1.536-0.256-2.176-0.256-0.896-0.64-1.28-1.152-1.28-0.128-0.512-0.256-1.152-0.256-1.664 0 0 0 0 0-0.128-0.512-2.048-1.408-3.968-2.816-5.632-2.176-2.816-4.864-4.224-7.936-4.224s-5.76 1.408-7.936 4.224c-1.536 1.92-2.432 4.096-2.944 6.528 0 0 0 0 0 0 0 0.256-0.128 0.512-0.128 0.768-0.384 0-0.896 0.384-1.024 1.28-0.128 0.64-0.128 1.28-0.128 2.048s0 1.536 0.128 2.048c0.128 1.408 1.024 1.536 1.28 1.536zM34.816 12.032c1.92-2.56 4.224-3.712 6.912-3.712s4.992 1.28 6.912 3.712c1.024 1.28 1.792 2.688 2.304 4.096-2.176-0.64-3.968-2.048-5.376-3.968-0.128-0.128-0.256-0.256-0.512-0.256 0 0 0 0 0 0-0.256 0-0.384 0.128-0.512 0.256-3.456 4.864-7.424 6.528-12.16 5.248 0.384-2.048 1.152-3.84 2.432-5.376zM30.976 20.096c0-0.128 0-0.256 0-0.256 0.128 0.128 0.384 0.128 0.512 0s0.256-0.256 0.384-0.512c0-0.256 0.128-0.384 0.128-0.64 4.992 1.28 9.344-0.384 12.928-5.12 1.664 2.048 3.712 3.328 6.272 3.968 0.128 0.512 0.256 1.152 0.256 1.664 0 0.256 0.128 0.512 0.384 0.64 0.128 0.128 0.384 0 0.512 0 0 0 0.128 0.128 0.128 0.384 0.128 0.512 0.256 1.152 0.256 1.792s-0.128 1.28-0.256 1.792c0 0.128-0.128 0.256-0.128 0.256h-0.128c-0.128-0.128-0.512-0.256-0.64-0.128s-0.384 0.384-0.384 0.64v0.128c-0.512 2.176-1.408 4.096-2.688 5.632-1.92 2.432-4.224 3.712-6.912 3.712s-4.992-1.152-6.912-3.712c-1.408-1.792-2.304-3.712-2.688-5.888 0-0.256-0.256-0.384-0.384-0.512-0.128 0-0.128 0-0.256 0s-0.256 0-0.384 0.128c0 0-0.128 0.128-0.128 0.128s0-0.128-0.128-0.256c-0.128-0.512-0.128-1.152-0.128-1.92 0.128-0.768 0.256-1.408 0.384-1.92z"></path>
<path fill="#444444" d="M9.088 27.392c0.384 1.664 1.152 3.072 2.176 4.352 1.664 2.176 3.712 3.2 6.144 3.2s4.48-1.152 6.144-3.2c1.024-1.28 1.664-2.688 2.176-4.352 0.256 0 0.896-0.128 1.152-1.024 0.128-0.384 0.128-1.024 0.128-1.664s0-1.152-0.128-1.664c-0.128-0.768-0.512-1.024-0.896-1.024 0-0.384-0.128-0.768-0.256-1.152 0 0 0 0 0-0.128-0.384-1.664-1.152-3.072-2.176-4.352-1.664-2.176-3.712-3.328-6.144-3.328s-4.48 1.152-6.144 3.328c-1.152 1.408-1.92 3.072-2.304 4.992 0 0 0 0.128 0 0.128 0 0.128 0 0.256 0 0.384-0.384 0.128-0.768 0.512-0.768 1.024-0.128 0.512-0.128 1.024-0.128 1.664s0 1.152 0.128 1.664c-0.128 0.768 0.384 1.152 0.896 1.152zM12.288 17.024c1.408-1.92 3.072-2.816 5.12-2.816s3.712 0.896 5.12 2.816c0.64 0.896 1.28 1.792 1.664 2.816-1.536-0.512-2.816-1.536-3.712-2.944-0.128-0.128-0.256-0.256-0.512-0.256 0 0 0 0 0 0-0.256 0-0.384 0.128-0.512 0.256-2.56 3.584-5.504 4.864-9.088 3.968 0.256-1.28 1.024-2.56 1.92-3.84zM9.344 23.168c0 0 0 0 0 0 0.128 0 0.128 0 0.256 0 0.256-0.128 0.384-0.256 0.384-0.512 0-0.128 0-0.256 0.128-0.384 3.712 0.896 7.040-0.384 9.856-3.84 1.28 1.536 2.816 2.432 4.736 2.944 0.128 0.384 0.128 0.768 0.128 1.152v0c0 0.256 0.128 0.512 0.384 0.64 0.128 0 0.256 0 0.384 0 0 0 0 0.128 0 0.128 0.128 0.384 0.128 0.896 0.128 1.408s0 1.024-0.128 1.28c0 0 0 0 0 0.128h-0.128c-0.256-0.128-0.384 0-0.64 0.128-0.128 0.128-0.256 0.256-0.256 0.512-0.384 1.664-1.024 3.072-2.048 4.352-1.408 1.92-3.072 2.816-5.12 2.816s-3.712-0.896-5.12-2.816c-1.024-1.28-1.664-2.816-2.048-4.608 0-0.256-0.128-0.384-0.384-0.512-0.128 0-0.128 0-0.128 0-0.128 0-0.256 0-0.256 0.128-0.128-0.384-0.128-0.896-0.128-1.408-0.128-0.64-0.128-1.024 0-1.536z"></path>
</svg>
