<?xml version="1.0" encoding="utf-8"?>
<!-- Generated by IcoMoon.io -->
<!DOCTYPE svg PUBLIC "-//W3C//DTD SVG 1.1//EN" "http://www.w3.org/Graphics/SVG/1.1/DTD/svg11.dtd">
<svg version="1.1" xmlns="http://www.w3.org/2000/svg" xmlns:xlink="http://www.w3.org/1999/xlink" width="58" height="64" viewBox="0 0 58 64">
<path fill="#444444" d="M24.447 10.724h7.841c0.231 0 0.346-0.115 0.461-0.231 2.306-3.575 1.96-7.034-0.922-10.263-0.115-0.115-0.231-0.231-0.461-0.231h-5.881c-0.115 0-0.346 0.115-0.461 0.231-2.883 3.459-3.344 6.919-1.153 10.263 0.231 0.115 0.346 0.231 0.577 0.231zM25.831 1.153h5.305c2.306 2.768 2.652 5.535 0.807 8.533h-7.265c-1.614-2.883-1.268-5.65 1.153-8.533z"></path>
<path fill="#444444" d="M28.368 64c0.115 0.115 0.231 0.115 0.346 0.115s0.231 0 0.346-0.115l2.537-2.076c0 0 0 0 0 0l6.688-5.535c0.115-0.115 0.231-0.346 0.231-0.461l-1.845-13.722 2.422 1.384c0.115 0.115 0.346 0.115 0.461 0 0.115 0 0.231-0.115 0.346-0.346l1.96-4.382c0.115-0.115 0.115-0.346 0-0.461l-7.726-15.798-0.231-1.845c0 0 0 0 0 0l-1.038-7.495c0-0.231-0.231-0.461-0.577-0.461h-7.841c-0.231 0-0.577 0.231-0.577 0.461l-1.614 11.301c0 0 0 0 0 0l-1.845 12.915c0 0 0 0 0 0l-1.73 12.339c0 0 0 0 0 0l-0.807 5.996c0 0.231 0 0.461 0.231 0.577l10.263 7.611zM40.822 38.631l-1.614 3.575-2.652-1.384-0.461-3.69c0 0 0 0 0 0l-1.499-11.070 6.227 12.569zM31.827 13.838l0.692 5.42-5.305-5.42h4.613zM24.908 13.838h0.577l7.265 7.265 0.231 1.73c0 0 0 0 0 0l1.73 12.8-11.301-11.301 1.499-10.494zM23.294 25.715l11.762 11.647 0.461 3.805c0 0 0 0 0 0l1.499 11.186-15.452-15.106 1.73-11.532zM21.333 38.631l15.914 15.568 0.231 1.499-6.112 4.959-11.532-11.186 1.499-10.84zM19.604 50.969l10.84 10.494-1.73 1.384-9.802-7.265 0.692-4.613z"></path>
</svg>
