<?xml version="1.0" encoding="utf-8"?>
<!-- Generated by IcoMoon.io -->
<!DOCTYPE svg PUBLIC "-//W3C//DTD SVG 1.1//EN" "http://www.w3.org/Graphics/SVG/1.1/DTD/svg11.dtd">
<svg version="1.1" xmlns="http://www.w3.org/2000/svg" xmlns:xlink="http://www.w3.org/1999/xlink" width="64" height="64" viewBox="0 0 64 64">
<path fill="#444444" d="M8.704 35.968l23.68 23.168c0.128 0.128 0.256 0.128 0.384 0.128s0.384 0 0.384-0.128l23.552-23.168c3.456-3.456 5.12-7.552 5.12-12.416s-1.664-8.96-5.12-12.416c-3.456-3.456-7.552-5.12-12.416-5.12-4.48 0-8.448 1.536-11.648 4.48-3.072-2.816-7.040-4.352-11.52-4.352-4.864 0-8.96 1.664-12.416 5.12s-5.12 7.552-5.12 12.416c0 4.736 1.664 8.832 4.992 12.288 0-0.128 0.128 0 0.128 0zM9.728 12.16c3.072-3.2 6.912-4.736 11.392-4.736 4.096 0 7.808 1.408 10.752 4.096-1.408 1.408-2.432 3.072-3.328 4.736-0.128 0.384 0 0.64 0.256 0.896 0.256 0.128 0.64 0 0.896-0.256 0.768-1.664 1.92-3.2 3.328-4.736 0 0 0.128-0.128 0.128-0.128 3.072-3.072 6.784-4.608 11.136-4.608 4.48 0 8.32 1.536 11.392 4.736 3.2 3.2 4.736 7.040 4.736 11.392s-1.536 8.32-4.736 11.392l-23.040 22.656-23.040-22.656c-3.072-3.072-4.608-6.912-4.608-11.264-0.128-4.48 1.536-8.32 4.736-11.52z"></path>
</svg>
