<?xml version="1.0" encoding="utf-8"?>
<!-- Generated by IcoMoon.io -->
<!DOCTYPE svg PUBLIC "-//W3C//DTD SVG 1.1//EN" "http://www.w3.org/Graphics/SVG/1.1/DTD/svg11.dtd">
<svg version="1.1" xmlns="http://www.w3.org/2000/svg" xmlns:xlink="http://www.w3.org/1999/xlink" width="67" height="64" viewBox="0 0 67 64">
<path fill="#444444" d="M62.976 11.264h-14.976v-0.128c0-1.92-0.896-3.456-2.432-4.608-1.536-1.28-3.456-1.92-5.76-1.92h-12.8c-2.176 0-4.096 0.64-5.76 1.92s-2.432 2.816-2.432 4.608v0.128h-14.464c-2.816 0-4.352 1.536-4.352 4.224v20.352c0 0.256 0.256 0.512 0.512 0.64 0.256 0 0.512 0.128 0.64 0.128v17.536c0 2.816 1.536 4.352 4.352 4.352h56.192c2.816 0 4.224-1.536 4.224-4.352v-17.408c0.256 0 0.512-0.128 0.768-0.256s0.384-0.384 0.384-0.64v-20.352c0.128-2.688-1.408-4.224-4.096-4.224zM20.224 11.136c0-1.408 0.64-2.688 1.92-3.712 1.408-1.152 3.072-1.664 4.864-1.664h12.8c1.92 0 3.584 0.512 4.864 1.664 0 0 0 0 0 0 1.28 1.024 1.92 2.176 1.92 3.584v0.128h-26.368zM64.64 54.272c0 2.048-0.896 3.072-2.944 3.072h-56.192c-2.048-0.128-2.944-1.024-2.944-3.072v-17.28c5.376 1.28 10.752 2.176 16 2.816v0.512c0 0.768 0.256 1.536 0.896 2.048 0.512 0.64 1.28 0.896 2.048 0.896s1.536-0.256 2.048-0.896c0.64-0.512 0.896-1.152 0.896-1.92 6.144 0.384 12.288 0.384 18.432 0 0 0.768 0.256 1.408 0.768 1.92 0.64 0.64 1.28 0.896 2.176 0.896 0.768 0 1.408-0.256 2.048-0.896 0.512-0.512 0.768-1.28 0.768-2.048v-0.384c5.376-0.64 10.88-1.536 16.128-2.944v17.28zM19.84 40.32v-2.176c0-0.384 0.128-0.768 0.512-1.152 0.256-0.256 0.64-0.512 1.152-0.512s0.896 0.128 1.152 0.512c0.384 0.384 0.512 0.768 0.512 1.152v2.176c0 0.512-0.128 0.768-0.512 1.152-0.256 0.384-0.64 0.512-1.152 0.512-0.384 0-0.768-0.128-1.152-0.512s-0.512-0.768-0.512-1.152zM44.032 40.32v-2.304c0-0.384 0.128-0.768 0.384-1.152 0.384-0.256 0.768-0.512 1.28-0.512 0.384 0 0.768 0.128 1.152 0.384 0.256 0.384 0.512 0.768 0.512 1.152v2.176c0 0.512-0.128 0.896-0.512 1.152-0.384 0.384-0.768 0.512-1.152 0.512s-0.768-0.128-1.152-0.512c-0.384-0.128-0.512-0.512-0.512-0.896zM65.92 35.456c-0.128 0-0.384 0.128-0.512 0.128 0 0-0.128 0-0.128 0-5.504 1.408-11.008 2.432-16.64 3.072v-0.512c0-0.768-0.256-1.408-0.896-2.048-0.64-0.512-1.28-0.768-2.048-0.768s-1.408 0.256-2.048 0.896c-0.512 0.64-0.768 1.28-0.768 2.048v1.024c-6.016 0.384-12.288 0.384-18.432 0v-1.024c0-0.768-0.256-1.408-0.896-2.048-0.512-0.512-1.28-0.768-2.176-0.768-0.768 0-1.408 0.256-2.048 0.768-0.64 0.64-0.896 1.28-0.896 2.048v0.384c-5.376-0.64-11.008-1.664-16.512-2.944 0 0 0 0 0 0-0.256 0-0.512-0.128-0.64-0.128v-20.096c0-2.048 0.896-3.072 3.072-3.072h58.624c2.048 0 2.944 0.896 2.944 3.072v19.968z"></path>
</svg>
