<?xml version="1.0" encoding="utf-8"?>
<!-- Generated by IcoMoon.io -->
<!DOCTYPE svg PUBLIC "-//W3C//DTD SVG 1.1//EN" "http://www.w3.org/Graphics/SVG/1.1/DTD/svg11.dtd">
<svg version="1.1" xmlns="http://www.w3.org/2000/svg" xmlns:xlink="http://www.w3.org/1999/xlink" width="67" height="64" viewBox="0 0 67 64">
<path fill="#444444" d="M5.632 23.68h55.552c0.384 0 0.64-0.256 0.64-0.64s-0.256-0.64-0.64-0.64h-55.552c-0.384 0-0.64 0.256-0.64 0.64s0.256 0.64 0.64 0.64z"></path>
<path fill="#444444" d="M5.632 35.456h55.552c0.384 0 0.64-0.256 0.64-0.64s-0.256-0.64-0.64-0.64h-55.552c-0.384 0-0.64 0.256-0.64 0.64s0.256 0.64 0.64 0.64z"></path>
<path fill="#444444" d="M5.632 47.36h55.552c0.384 0 0.64-0.256 0.64-0.64s-0.256-0.64-0.64-0.64h-55.552c-0.384 0-0.64 0.256-0.64 0.64s0.256 0.64 0.64 0.64z"></path>
<path fill="#444444" d="M13.184 9.344c-0.512-0.256-1.152-0.384-1.792-0.384h-1.408c-0.768 0-1.408 0.128-2.048 0.512-0.64 0.512-0.896 1.024-0.896 1.408v0.256h-2.816c-2.688 0.128-4.224 1.664-4.224 4.352v38.656c0 2.816 1.536 4.352 4.224 4.352h58.624c2.816 0 4.224-1.536 4.224-4.352v-38.656c0-2.816-1.536-4.352-4.224-4.352h-3.456v-0.256c0-0.384-0.128-1.024-1.024-1.536-0.384-0.128-1.024-0.384-1.792-0.384h-1.28c-0.768 0-1.408 0.128-1.92 0.384-0.768 0.512-0.896 1.152-0.896 1.536v0.256h-4.48c0-1.92-0.896-3.456-2.432-4.608-1.536-1.28-3.456-1.92-5.76-1.92h-12.8c-2.176 0-4.096 0.64-5.76 1.92s-2.432 2.816-2.432 4.608v0.128h-4.736v-0.384c0.128-0.384 0-1.024-0.896-1.536zM8.32 10.88c0-0.128 0-0.256 0.256-0.384 0.384-0.128 0.896-0.256 1.408-0.256h1.408c0.512 0 0.896 0.128 1.152 0.256 0.384 0.256 0.384 0.384 0.384 0.384v0.256h-4.608v-0.256zM53.76 10.88c0 0 0-0.256 0.256-0.384 0.384-0.128 0.768-0.256 1.28-0.256h1.28c0.512 0 0.896 0.128 1.28 0.256 0.256 0.128 0.384 0.256 0.384 0.384v0.256h-4.48v-0.256zM20.224 11.136c0-1.408 0.64-2.688 1.92-3.712 1.408-1.152 2.944-1.664 4.864-1.664h12.8c1.92 0 3.584 0.512 4.992 1.664 1.28 1.024 1.92 2.176 1.92 3.584v0.128h-26.496zM62.976 12.544c2.048 0 2.944 0.896 2.944 3.072v38.656c0 2.048-0.896 3.072-2.944 3.072h-58.752c-2.048-0.128-2.944-1.024-2.944-3.072v-38.784c0-2.048 0.896-3.072 2.944-3.072h58.752z"></path>
</svg>
