<?xml version="1.0" encoding="utf-8"?>
<!-- Generated by IcoMoon.io -->
<!DOCTYPE svg PUBLIC "-//W3C//DTD SVG 1.1//EN" "http://www.w3.org/Graphics/SVG/1.1/DTD/svg11.dtd">
<svg version="1.1" xmlns="http://www.w3.org/2000/svg" xmlns:xlink="http://www.w3.org/1999/xlink" width="64" height="64" viewBox="0 0 64 64">
<path fill="#444444" d="M42.752 47.616c0 0-0.128 0.128 0 0v0c-0.128 0.128-0.128 0.128-0.128 0.128s0 0 0 0.128c0.128 0 0.128 0 0.128 0 0.128 0 0.128 0 0-0.256 0.128 0.128 0 0.128 0 0 0 0 0 0 0 0z"></path>
<path fill="#444444" d="M33.152 30.336c-0.256-0.128-0.512-0.384-0.768-0.384v-7.808c0-0.384-0.256-0.64-0.64-0.64s-0.64 0.256-0.64 0.64v7.808c-0.256 0.128-0.512 0.256-0.768 0.512-0.384 0.384-0.512 0.768-0.512 1.28s0.128 0.896 0.512 1.28c0.384 0.384 0.768 0.64 1.408 0.64 0.512 0 0.896-0.256 1.28-0.64 0.256-0.256 0.384-0.512 0.512-0.768h13.824c0.384 0 0.64-0.256 0.64-0.64s-0.256-0.64-0.64-0.64h-13.696c-0.128-0.128-0.256-0.384-0.512-0.64zM32.256 32.128c-0.128 0.128-0.384 0.256-0.512 0.256-0.256 0-0.384-0.128-0.512-0.256s-0.256-0.384-0.256-0.512c0-0.256 0.128-0.384 0.128-0.512 0.128-0.128 0.256-0.128 0.512-0.128s0.384 0.128 0.512 0.128c0.128 0.128 0.256 0.384 0.256 0.512 0.128 0.256 0.128 0.384-0.128 0.512z"></path>
<path fill="#444444" d="M31.872 15.232c0.768 0 1.536-0.256 2.048-0.896 0.64-0.512 0.896-1.28 0.896-2.048s-0.256-1.408-0.768-2.048c-1.152-1.152-2.944-1.152-4.096 0 0 0 0 0 0 0-0.512 0.512-0.896 1.28-0.896 2.048s0.256 1.536 0.896 2.048c0.512 0.64 1.152 0.896 1.92 0.896zM30.72 11.136c0.768-0.768 1.792-0.64 2.432 0 0.384 0.384 0.512 0.768 0.512 1.28s-0.128 0.896-0.512 1.152c-0.64 0.64-1.792 0.768-2.56 0-0.384-0.256-0.512-0.768-0.512-1.152 0.128-0.512 0.256-0.896 0.64-1.28z"></path>
<path fill="#444444" d="M42.752 46.72c-0.256 0-0.512 0.128-0.64 0.384-0.256 0.128-0.384 0.384-0.384 0.768s0.128 0.64 0.384 0.768c0.128 0.128 0.384 0.256 0.64 0.256s0.512-0.128 0.768-0.256c0.128-0.128 0.256-0.384 0.256-0.768 0-0.256-0.128-0.512-0.256-0.64-0.384-0.384-0.64-0.512-0.768-0.512zM42.752 47.872c0 0-0.128 0-0.128 0s0-0.128 0-0.128c0 0 0 0 0 0v0c0 0 0.128-0.128 0.128-0.128s0 0 0 0 0 0 0 0 0 0 0 0c0 0.128 0.128 0.128 0 0.256 0.128 0 0.128 0 0 0z"></path>
<path fill="#444444" d="M42.752 17.024c0.128 0 0.512 0 0.768-0.384 0.128-0.128 0.256-0.384 0.256-0.64 0-0.384-0.128-0.64-0.256-0.768 0 0 0 0-0.128-0.128-0.512-0.256-1.152-0.256-1.28 0-0.256 0.128-0.384 0.512-0.384 0.768s0.128 0.512 0.384 0.768c0.128 0.256 0.384 0.384 0.64 0.384z"></path>
<path fill="#444444" d="M48.384 31.744c0 0.768 0.256 1.536 0.896 2.048 0.512 0.64 1.28 0.896 2.048 0.896s1.536-0.256 2.048-0.896c0.512-0.512 0.896-1.28 0.896-2.048s-0.256-1.408-0.896-2.048c-0.512-0.512-1.28-0.896-2.048-0.896s-1.536 0.256-2.048 0.896c-0.64 0.64-0.896 1.28-0.896 2.048zM50.048 30.592c0.256-0.384 0.64-0.512 1.152-0.512s0.896 0.128 1.28 0.512c0.384 0.384 0.512 0.768 0.512 1.152 0 0.512-0.128 0.896-0.512 1.28-0.64 0.64-1.792 0.768-2.432 0 0 0 0 0 0 0-0.384-0.384-0.512-0.768-0.512-1.28 0-0.384 0.256-0.896 0.512-1.152z"></path>
<path fill="#444444" d="M49.152 23.424c0.128 0 0.512 0 0.768-0.384 0.128-0.128 0.256-0.384 0.256-0.64 0-0.384-0.128-0.64-0.256-0.768 0 0 0 0-0.128-0.128-0.512-0.256-1.152-0.256-1.28 0-0.256 0.128-0.384 0.512-0.384 0.768s0.128 0.512 0.384 0.768c0.128 0.256 0.384 0.384 0.64 0.384z"></path>
<path fill="#444444" d="M49.152 42.496c0.256 0 0.512-0.128 0.768-0.256 0.128-0.128 0.256-0.384 0.256-0.768 0-0.256-0.128-0.512-0.256-0.64 0 0 0 0 0 0-0.256-0.256-0.512-0.384-0.768-0.384s-0.512 0.128-0.768 0.384c-0.256 0.128-0.384 0.384-0.384 0.768s0.128 0.64 0.384 0.768c0.384 0 0.512 0.128 0.768 0.128z"></path>
<path fill="#444444" d="M42.752 47.616c0 0 0 0 0 0z"></path>
<path fill="#444444" d="M15.232 40.32c-0.128 0-0.512 0-0.768 0.384-0.128 0.128-0.256 0.384-0.256 0.64 0 0.384 0.128 0.64 0.384 0.768s0.384 0.256 0.64 0.256c0.256 0 0.512-0.128 0.64-0.256 0.256-0.128 0.384-0.512 0.384-0.768s-0.128-0.512-0.384-0.768c-0.128-0.128-0.384-0.256-0.64-0.256z"></path>
<path fill="#444444" d="M31.872 54.144c0.768 0 1.536-0.256 2.048-0.896 0.64-0.512 0.896-1.28 0.896-2.048s-0.256-1.536-0.896-2.048c-1.152-1.152-2.944-1.152-4.096 0-0.512 0.512-0.896 1.28-0.896 2.048s0.256 1.536 0.896 2.048c0.64 0.64 1.28 0.896 2.048 0.896zM30.72 50.048c0.384-0.384 0.768-0.512 1.152-0.512 0.512 0 0.896 0.128 1.28 0.512s0.512 0.768 0.512 1.28c0 0.512-0.128 0.896-0.512 1.152-0.64 0.64-1.792 0.768-2.56 0-0.384-0.256-0.512-0.768-0.512-1.152 0.128-0.512 0.256-1.024 0.64-1.28z"></path>
<path fill="#444444" d="M21.76 17.024c0.256 0 0.512-0.128 0.64-0.384 0.256-0.128 0.384-0.384 0.384-0.768s-0.128-0.64-0.384-0.768-0.896-0.384-1.408-0.128c0 0 0 0-0.128 0.128s-0.256 0.384-0.256 0.768c0 0.256 0.128 0.512 0.256 0.64 0.384 0.512 0.64 0.512 0.896 0.512z"></path>
<path fill="#444444" d="M31.872 62.592c8.448 0 15.744-3.072 21.632-8.96 6.016-5.888 8.96-13.184 8.96-21.632s-3.072-15.744-8.96-21.76c-5.888-5.888-13.184-8.96-21.632-8.96s-15.744 2.944-21.76 8.96c-5.888 6.016-8.96 13.312-8.96 21.76s2.944 15.744 8.96 21.632c6.016 6.016 13.312 8.96 21.76 8.96zM11.008 11.136c5.76-5.76 12.8-8.576 20.864-8.576s15.104 2.944 20.864 8.576c5.76 5.76 8.704 12.8 8.704 20.864s-2.944 15.104-8.704 20.864c-5.76 5.76-12.672 8.704-20.864 8.704-8.064 0-15.104-2.944-20.864-8.704-5.632-5.76-8.576-12.8-8.576-20.864s2.944-15.104 8.576-20.864z"></path>
<path fill="#444444" d="M15.232 23.424c0.256 0 0.512-0.128 0.768-0.384 0.256-0.128 0.384-0.384 0.384-0.768s-0.128-0.64-0.384-0.768-0.896-0.384-1.408-0.128c0 0-0.128 0-0.128 0.128-0.128 0.128-0.256 0.384-0.256 0.768 0 0.256 0.128 0.512 0.256 0.64 0.256 0.384 0.512 0.512 0.768 0.512z"></path>
<path fill="#444444" d="M31.872 58.112c7.296 0 13.568-2.56 18.688-7.808 5.248-5.12 7.808-11.52 7.808-18.688 0-7.296-2.688-13.696-7.808-18.816-4.992-5.12-11.264-7.68-18.688-7.68-7.296 0-13.568 2.56-18.816 7.68-5.12 5.12-7.68 11.52-7.68 18.816s2.56 13.568 7.68 18.688c5.248 5.248 11.52 7.808 18.816 7.808zM13.952 13.696c4.992-4.992 11.008-7.424 18.048-7.424s13.056 2.56 17.92 7.424c4.992 4.992 7.552 11.008 7.552 17.92s-2.56 13.056-7.552 17.92c-4.864 4.992-10.88 7.424-17.92 7.424-6.912 0-13.056-2.56-17.92-7.424-4.864-4.992-7.424-11.008-7.424-17.92-0.128-6.912 2.432-13.056 7.296-17.92z"></path>
<path fill="#444444" d="M21.76 48.768c0.256 0 0.512-0.128 0.64-0.256 0.256-0.128 0.384-0.512 0.384-0.768s-0.128-0.512-0.384-0.768c-0.128-0.256-0.384-0.384-0.64-0.384-0.128 0-0.512 0-0.768 0.384-0.128 0.128-0.256 0.384-0.256 0.64 0 0.384 0.128 0.64 0.384 0.768 0.128 0.384 0.384 0.384 0.64 0.384z"></path>
<path fill="#444444" d="M15.36 31.744c0-0.768-0.256-1.408-0.896-2.048-0.512-0.512-1.28-0.896-2.048-0.896s-1.536 0.256-2.048 0.896c-0.512 0.512-0.896 1.28-0.896 2.048s0.256 1.536 0.896 2.048c0.512 0.64 1.28 0.896 2.048 0.896s1.536-0.256 2.048-0.896c0.64-0.512 0.896-1.152 0.896-2.048zM13.696 33.024c-0.64 0.64-1.792 0.768-2.432 0-0.384-0.384-0.512-0.768-0.512-1.28s0.128-0.896 0.512-1.28c0.256-0.384 0.64-0.512 1.152-0.512s0.896 0.128 1.28 0.512c0.384 0.384 0.512 0.768 0.512 1.152 0 0.64-0.128 1.024-0.512 1.408z"></path>
</svg>
