<?xml version="1.0" encoding="utf-8"?>
<!-- Generated by IcoMoon.io -->
<!DOCTYPE svg PUBLIC "-//W3C//DTD SVG 1.1//EN" "http://www.w3.org/Graphics/SVG/1.1/DTD/svg11.dtd">
<svg version="1.1" xmlns="http://www.w3.org/2000/svg" xmlns:xlink="http://www.w3.org/1999/xlink" width="60" height="64" viewBox="0 0 60 64">
<path fill="#444444" d="M24.875 57.962c0 0 0.121-0.121 0 0l10.747-1.691c0.362 0 0.604-0.362 0.483-0.724 0-0.362-0.362-0.604-0.724-0.483l-10.626 1.691c-0.362 0-0.604 0.362-0.483 0.724 0 0.242 0.362 0.483 0.604 0.483z"></path>
<path fill="#444444" d="M16.664 37.192c3.985 3.864 5.917 8.453 5.675 13.766 0 0.242 0.121 0.362 0.241 0.483s0.241 0.121 0.362 0.121c0 0 0.121 0 0.121 0l14.611-2.536c0.362 0 0.483-0.362 0.483-0.604-0.362-3.26 1.811-7.245 6.158-11.592l0.845-0.845c4.106-4.106 6.158-9.057 6.158-14.853s-2.053-10.747-6.159-14.974c-4.226-4.106-9.177-6.159-14.974-6.159s-10.747 2.053-14.974 6.159c-4.106 4.106-6.159 9.177-6.159 14.974s2.053 10.747 6.159 14.853c0.483 0.362 0.966 0.845 1.449 1.208zM16.181 7.004c3.864-3.864 8.574-5.796 14.008-5.796s10.143 1.932 14.008 5.796c3.864 3.864 5.917 8.574 5.917 14.008s-1.932 10.143-5.917 14.008l-0.845 0.845c-4.347 4.468-6.521 8.453-6.521 11.955l-13.404 2.294c0.121-5.313-1.932-10.023-6.038-13.887-0.483-0.362-0.845-0.845-1.328-1.208-3.864-3.864-5.796-8.574-5.796-14.008s2.053-10.143 5.917-14.008z"></path>
<path fill="#444444" d="M27.291 6.883c0.362 0 0.604-0.362 0.483-0.724 0-0.362-0.362-0.604-0.724-0.483-5.555 0.966-9.54 4.226-11.955 9.66-0.121 0.362 0 0.604 0.362 0.845 0.121 0 0.121 0 0.242 0 0.242 0 0.483-0.121 0.604-0.362 2.174-5.072 5.796-8.091 10.989-8.936z"></path>
<path fill="#444444" d="M24.030 47.94c0 0.242 0.362 0.483 0.604 0.483 0 0 0.121 0 0.121 0l11.109-1.811c0.362 0 0.604-0.362 0.483-0.724 0-0.362-0.362-0.604-0.724-0.483l-11.109 1.811c-0.362 0.121-0.604 0.362-0.483 0.724z"></path>
<path fill="#444444" d="M37.555 51.562l-14.853 1.932c-0.241 0-0.483 0.242-0.483 0.604v3.623c0 1.691 0.604 3.14 1.691 4.347 1.208 1.208 2.657 1.932 4.347 1.932h3.864c1.691 0 3.14-0.604 4.347-1.932 1.208-1.208 1.811-2.777 1.811-4.347v-5.555c0-0.121-0.121-0.362-0.242-0.483s-0.242-0.121-0.483-0.121zM37.072 57.721c0 1.328-0.483 2.536-1.449 3.623-0.966 0.966-2.053 1.449-3.381 1.449h-3.864c-1.328 0-2.536-0.483-3.502-1.449s-1.449-2.174-1.449-3.623v-3.14l13.645-1.811v4.951z"></path>
</svg>
