<?xml version="1.0" encoding="utf-8"?>
<!-- Generator: Adobe Illustrator 16.0.0, SVG Export Plug-In . SVG Version: 6.00 Build 0)  -->
<!DOCTYPE svg PUBLIC "-//W3C//DTD SVG 1.1//EN" "http://www.w3.org/Graphics/SVG/1.1/DTD/svg11.dtd">
<svg version="1.1" id="Слой_1" xmlns="http://www.w3.org/2000/svg" xmlns:xlink="http://www.w3.org/1999/xlink" x="0px" y="0px"
	 width="841.889px" height="1190.551px" viewBox="0 0 841.889 1190.551" enable-background="new 0 0 841.889 1190.551"
	 xml:space="preserve">
<path d="M515.213,943.912H144.85c-4.418,0-8-3.582-8-8V253.686c0-4.418,3.582-8,8-8h357.377c0.213,0,0.426,0.008,0.639,0.025
	c111.869,8.958,176.967,59.987,193.484,151.67c0.031,0.172,0.057,0.344,0.076,0.518c8.457,74.646-15.272,133.538-70.559,175.259
	c72.513,40.026,102.052,107.754,87.819,201.52c-0.02,0.132-0.043,0.263-0.069,0.393c-19.438,95.654-85.8,152.432-197.245,168.758
	C515.989,943.884,515.601,943.912,515.213,943.912z M152.85,927.912h361.777c52.108-7.713,93.908-24.733,124.244-50.595
	c30.166-25.716,50.025-61.124,59.027-105.239c6.911-45.727,2.77-84.902-12.31-116.437c-14.998-31.366-41.424-56.327-78.542-74.192
	c-2.589-1.246-4.311-3.785-4.511-6.651s1.151-5.62,3.542-7.214c28.892-19.264,49.781-43.074,62.091-70.767
	c12.323-27.725,16.491-60.312,12.388-96.857c-7.565-41.698-26.225-74.393-55.462-97.174
	c-29.589-23.055-71.033-36.882-123.189-41.101H152.85V927.912z M493.555,820.478H285.627c-4.418,0-8-3.582-8-8V641.372
	c0-4.418,3.582-8,8-8h199.256c0.14,0,0.279,0.004,0.419,0.011c30.256,1.586,52.876,10.504,67.232,26.508
	c13.642,15.207,19.801,36.748,18.31,64.023c-0.034,27.569-6.438,49.726-19.032,65.86c-12.791,16.386-31.975,26.684-57.019,30.607
	C494.384,820.446,493.97,820.478,493.555,820.478z M293.627,804.478h199.295c41.664-6.752,61.922-33.185,61.922-80.789
	c0-0.149,0.004-0.299,0.013-0.448c1.291-22.98-3.498-40.7-14.233-52.667c-11.38-12.688-30.205-19.82-55.951-21.202H293.627V804.478z
	 M467.54,534.59H285.627c-4.418,0-8-3.582-8-8V372.805c0-4.418,3.582-8,8-8h188.427c0.08,0,0.161,0.001,0.241,0.003
	c25.767,0.779,45.96,8.097,60.017,21.751c14.058,13.655,21.975,33.643,23.53,59.409c0.01,0.16,0.015,0.321,0.015,0.482
	c0,23.803-7.733,43.405-22.986,58.261c-14.812,14.428-36.979,24.436-65.885,29.747C468.509,534.546,468.026,534.59,467.54,534.59z
	 M293.627,518.59h173.178c50.399-9.436,74.952-32.959,75.052-71.899c-1.34-21.538-7.629-37.906-18.692-48.653
	c-11.081-10.763-27.645-16.561-49.233-17.232H293.627V518.59z"/>
</svg>
